<svg id="svg" version="1.1" xmlns="http://www.w3.org/2000/svg" xmlns:xlink="http://www.w3.org/1999/xlink" width="400" height="400" viewBox="0, 0, 400,400"><g id="svgg"><path id="path0" d="M253.900 96.433 C 259.024 97.664,261.573 98.335,263.732 99.022 C 304.261 111.926,324.639 146.979,319.587 195.100 C 314.876 239.974,287.280 268.967,242.110 276.500 C 235.572 277.591,231.707 277.959,221.500 278.467 C 220.840 278.499,240.191 278.520,264.502 278.513 L 308.704 278.500 313.052 274.151 C 315.443 271.758,317.400 269.711,317.400 269.601 C 317.400 269.490,317.489 269.400,317.598 269.400 C 317.863 269.400,329.600 257.671,329.600 257.407 C 329.600 257.293,329.702 257.200,329.826 257.200 C 330.092 257.200,331.400 255.858,331.400 255.586 C 331.400 255.484,331.471 255.422,331.558 255.450 C 331.762 255.515,334.916 252.366,334.851 252.162 C 334.824 252.077,335.027 251.951,335.301 251.882 C 335.576 251.813,335.800 251.623,335.800 251.460 C 335.800 251.296,335.980 251.115,336.200 251.058 C 336.420 251.000,336.600 250.874,336.600 250.778 C 336.600 250.682,337.320 249.892,338.200 249.024 C 339.080 248.156,339.800 247.348,339.800 247.229 C 339.800 247.110,339.935 247.064,340.100 247.128 C 340.294 247.202,340.400 247.123,340.400 246.903 C 340.400 246.716,340.585 246.514,340.811 246.455 C 341.055 246.391,341.180 246.236,341.118 246.074 C 341.060 245.923,341.110 245.800,341.229 245.800 C 341.348 245.800,342.156 245.080,343.024 244.200 C 343.892 243.320,344.692 242.600,344.801 242.600 C 344.911 242.600,345.000 242.457,345.000 242.281 C 345.000 242.106,345.180 241.915,345.400 241.858 C 345.620 241.800,345.800 241.620,345.800 241.458 C 345.800 241.295,345.985 241.114,346.211 241.055 C 346.455 240.991,346.580 240.836,346.518 240.674 C 346.460 240.523,346.523 240.400,346.657 240.400 C 346.937 240.400,349.000 238.289,349.000 238.002 C 349.000 237.898,349.135 237.864,349.300 237.928 C 349.508 238.008,349.600 237.914,349.600 237.621 C 349.600 237.342,349.727 237.200,349.977 237.200 C 350.185 237.200,350.400 237.021,350.458 236.800 C 350.515 236.580,350.695 236.400,350.858 236.400 C 351.020 236.400,351.200 236.220,351.258 236.000 C 351.315 235.780,351.506 235.600,351.681 235.600 C 351.857 235.600,352.000 235.514,352.000 235.409 C 352.000 235.161,352.961 234.200,353.209 234.200 C 353.314 234.200,353.400 234.114,353.400 234.008 C 353.400 233.902,353.590 233.639,353.821 233.423 C 354.053 233.207,354.183 232.934,354.109 232.815 C 354.028 232.683,354.174 232.600,354.488 232.600 C 354.867 232.600,355.000 232.496,355.000 232.200 C 355.000 231.942,355.133 231.800,355.377 231.800 C 355.585 231.800,355.800 231.621,355.858 231.400 C 355.915 231.180,356.116 231.000,356.303 231.000 C 356.523 231.000,356.602 230.894,356.528 230.700 C 356.463 230.531,356.523 230.400,356.665 230.400 C 356.803 230.400,357.247 230.040,357.652 229.600 C 358.057 229.160,358.470 228.800,358.570 228.800 C 358.671 228.800,358.800 228.620,358.858 228.400 C 358.915 228.180,359.106 228.000,359.281 228.000 C 359.467 228.000,359.600 227.833,359.600 227.600 C 359.600 227.333,359.733 227.200,360.000 227.200 C 360.267 227.200,360.400 227.067,360.400 226.800 C 360.400 226.533,360.533 226.400,360.800 226.400 C 361.020 226.400,361.200 226.304,361.200 226.186 C 361.200 225.890,361.724 225.391,361.876 225.543 C 361.944 225.611,362.000 225.517,362.000 225.333 C 362.000 225.150,362.090 225.000,362.200 225.000 C 362.310 225.000,362.378 224.888,362.350 224.750 C 362.323 224.613,362.413 224.523,362.550 224.550 C 362.688 224.578,362.800 224.468,362.800 224.306 C 362.800 224.136,362.918 224.058,363.082 224.121 C 363.251 224.186,363.416 224.064,363.495 223.814 C 363.568 223.587,363.756 223.400,363.913 223.400 C 364.071 223.400,364.189 223.332,364.176 223.250 C 364.106 222.808,364.242 222.600,364.600 222.600 C 364.867 222.600,365.000 222.467,365.000 222.200 C 365.000 221.942,365.133 221.800,365.377 221.800 C 365.585 221.800,365.800 221.621,365.858 221.400 C 365.915 221.180,366.106 221.000,366.281 221.000 C 366.457 221.000,366.600 220.911,366.600 220.802 C 366.600 220.693,366.869 220.347,367.197 220.033 C 367.526 219.718,367.729 219.388,367.647 219.299 C 367.566 219.209,367.613 219.201,367.751 219.281 C 367.898 219.365,368.053 219.295,368.123 219.113 C 368.189 218.941,368.368 218.800,368.521 218.800 C 368.675 218.800,368.800 218.620,368.800 218.400 C 368.800 218.133,368.933 218.000,369.200 218.000 C 369.467 218.000,369.600 217.867,369.600 217.600 C 369.600 217.342,369.733 217.200,369.977 217.200 C 370.185 217.200,370.400 217.021,370.458 216.800 C 370.515 216.580,370.706 216.400,370.881 216.400 C 371.057 216.400,371.200 216.271,371.200 216.113 C 371.200 215.956,371.380 215.770,371.600 215.700 C 371.820 215.630,372.000 215.444,372.000 215.287 C 372.000 215.129,372.129 215.000,372.287 215.000 C 372.444 215.000,372.630 214.820,372.700 214.600 C 372.770 214.380,372.945 214.200,373.090 214.200 C 373.235 214.200,373.400 214.020,373.458 213.800 C 373.515 213.580,373.706 213.400,373.881 213.400 C 374.067 213.400,374.200 213.233,374.200 213.000 C 374.200 212.637,374.287 212.575,374.750 212.612 C 374.832 212.618,374.951 212.416,375.013 212.162 C 375.085 211.870,375.251 211.722,375.463 211.759 C 375.653 211.792,375.800 211.689,375.800 211.522 C 375.800 211.360,375.980 211.170,376.200 211.100 C 376.420 211.030,376.600 210.893,376.600 210.796 C 376.600 210.558,377.568 209.600,377.809 209.600 C 377.914 209.600,378.000 209.462,378.000 209.294 C 378.000 209.125,378.187 208.918,378.415 208.834 C 378.643 208.749,378.823 208.617,378.815 208.540 C 378.768 208.099,378.839 208.000,379.200 208.000 C 379.467 208.000,379.600 207.867,379.600 207.600 C 379.600 207.242,379.808 207.106,380.250 207.176 C 380.332 207.189,380.400 207.071,380.400 206.913 C 380.400 206.756,380.580 206.570,380.800 206.500 C 381.020 206.430,381.200 206.293,381.200 206.196 C 381.200 205.965,382.165 205.000,382.396 205.000 C 382.493 205.000,382.630 204.820,382.700 204.600 C 382.770 204.380,382.956 204.200,383.113 204.200 C 383.271 204.200,383.400 204.020,383.400 203.800 C 383.400 203.530,383.533 203.400,383.809 203.400 C 384.087 203.400,384.199 203.288,384.159 203.050 C 384.120 202.820,384.248 202.679,384.530 202.639 C 384.766 202.605,385.005 202.403,385.061 202.189 C 385.117 201.975,385.306 201.800,385.481 201.800 C 385.657 201.800,385.800 201.671,385.800 201.513 C 385.800 201.356,385.980 201.170,386.200 201.100 C 386.420 201.030,386.600 200.802,386.600 200.593 C 386.600 200.348,386.700 200.251,386.882 200.321 C 387.051 200.386,387.216 200.264,387.295 200.014 C 387.368 199.787,387.556 199.600,387.713 199.600 C 387.871 199.600,388.000 199.420,388.000 199.200 C 388.000 198.933,388.133 198.800,388.400 198.800 C 388.667 198.800,388.800 198.667,388.800 198.400 C 388.800 198.133,388.933 198.000,389.200 198.000 C 389.467 198.000,389.600 197.867,389.600 197.600 C 389.600 197.333,389.733 197.200,390.000 197.200 C 390.220 197.200,390.400 197.071,390.400 196.913 C 390.400 196.756,390.580 196.570,390.800 196.500 C 391.020 196.430,391.200 196.202,391.200 195.993 C 391.200 195.748,391.300 195.651,391.482 195.721 C 391.651 195.786,391.816 195.664,391.895 195.414 C 391.968 195.187,392.156 195.000,392.313 195.000 C 392.471 195.000,392.600 194.857,392.600 194.681 C 392.600 194.506,392.780 194.315,393.000 194.258 C 393.221 194.200,393.400 193.985,393.400 193.777 C 393.400 193.533,393.542 193.400,393.800 193.400 C 394.067 193.400,394.200 193.267,394.200 193.000 C 394.200 192.733,394.333 192.600,394.600 192.600 C 394.833 192.600,395.000 192.467,395.000 192.281 C 395.000 192.106,395.180 191.915,395.400 191.858 C 395.620 191.800,395.800 191.678,395.800 191.586 C 395.800 191.355,396.774 190.400,397.009 190.400 C 397.114 190.400,397.200 190.257,397.200 190.081 C 397.200 189.906,397.380 189.715,397.600 189.658 C 397.821 189.600,398.000 189.385,398.000 189.177 C 398.000 188.933,398.142 188.800,398.400 188.800 C 398.764 188.800,398.800 188.667,398.800 187.300 C 398.800 185.933,398.764 185.800,398.400 185.800 C 398.180 185.800,398.000 185.706,398.000 185.591 C 398.000 185.309,396.302 183.600,396.022 183.600 C 395.900 183.600,395.800 183.457,395.800 183.281 C 395.800 183.106,395.620 182.915,395.400 182.858 C 395.179 182.800,395.000 182.585,395.000 182.377 C 395.000 182.133,394.858 182.000,394.600 182.000 C 394.367 182.000,394.200 181.867,394.200 181.681 C 394.200 181.506,394.020 181.315,393.800 181.258 C 393.580 181.200,393.400 181.065,393.400 180.957 C 393.400 180.695,391.456 178.800,391.187 178.800 C 391.071 178.800,391.036 178.704,391.108 178.587 C 391.181 178.469,391.051 178.324,390.820 178.263 C 390.581 178.201,390.400 177.991,390.400 177.777 C 390.400 177.570,390.332 177.411,390.250 177.424 C 389.808 177.494,389.600 177.358,389.600 177.000 C 389.600 176.733,389.467 176.600,389.200 176.600 C 388.933 176.600,388.800 176.467,388.800 176.200 C 388.800 175.933,388.667 175.800,388.400 175.800 C 388.180 175.800,388.000 175.700,388.000 175.578 C 388.000 175.298,386.291 173.600,386.009 173.600 C 385.894 173.600,385.800 173.457,385.800 173.281 C 385.800 173.106,385.620 172.915,385.400 172.858 C 385.179 172.800,385.000 172.585,385.000 172.377 C 385.000 172.133,384.858 172.000,384.600 172.000 C 384.375 172.000,384.200 171.867,384.200 171.695 C 384.200 171.527,383.975 171.305,383.700 171.200 C 383.425 171.095,383.200 170.918,383.200 170.805 C 383.200 170.527,381.785 169.103,381.348 168.941 C 381.155 168.870,381.020 168.698,381.048 168.560 C 381.077 168.422,380.907 168.280,380.672 168.244 C 380.358 168.195,380.270 168.074,380.345 167.789 C 380.422 167.494,380.344 167.400,380.023 167.400 C 379.733 167.400,379.600 167.274,379.600 167.000 C 379.600 166.733,379.467 166.600,379.200 166.600 C 378.980 166.600,378.800 166.468,378.800 166.306 C 378.800 166.145,378.553 165.879,378.250 165.714 C 377.947 165.550,377.784 165.412,377.888 165.408 C 377.991 165.404,377.858 165.197,377.592 164.950 C 377.327 164.703,377.077 164.545,377.036 164.600 C 376.996 164.655,376.834 164.453,376.675 164.150 C 376.517 163.847,376.255 163.600,376.094 163.600 C 375.932 163.600,375.800 163.420,375.800 163.200 C 375.800 162.933,375.667 162.800,375.400 162.800 C 375.133 162.800,375.000 162.667,375.000 162.400 C 375.000 162.133,374.867 162.000,374.600 162.000 C 374.333 162.000,374.200 161.867,374.200 161.600 C 374.200 161.380,374.102 161.200,373.983 161.200 C 373.863 161.200,373.290 160.705,372.709 160.100 C 372.127 159.495,371.550 159.000,371.426 159.000 C 371.302 159.000,371.200 158.857,371.200 158.681 C 371.200 158.506,371.020 158.315,370.800 158.258 C 370.579 158.200,370.400 157.985,370.400 157.777 C 370.400 157.533,370.258 157.400,370.000 157.400 C 369.767 157.400,369.600 157.267,369.600 157.081 C 369.600 156.906,369.420 156.715,369.200 156.658 C 368.980 156.600,368.800 156.462,368.800 156.350 C 368.800 156.073,367.107 154.400,366.826 154.400 C 366.702 154.400,366.600 154.257,366.600 154.081 C 366.600 153.906,366.428 153.718,366.218 153.663 C 366.009 153.608,365.789 153.380,365.730 153.156 C 365.660 152.887,365.518 152.789,365.312 152.868 C 365.091 152.952,365.000 152.866,365.000 152.575 C 365.000 152.331,364.837 152.120,364.600 152.058 C 364.380 152.000,364.200 151.861,364.200 151.749 C 364.200 151.481,361.681 149.000,361.409 149.000 C 361.294 149.000,361.200 148.820,361.200 148.600 C 361.200 148.333,361.067 148.200,360.800 148.200 C 360.567 148.200,360.400 148.067,360.400 147.881 C 360.400 147.706,360.220 147.515,360.000 147.458 C 359.780 147.400,359.600 147.269,359.600 147.166 C 359.600 146.838,357.008 144.371,356.800 144.500 C 356.690 144.568,356.600 144.430,356.600 144.193 C 356.600 143.938,356.445 143.722,356.218 143.663 C 356.009 143.608,355.790 143.382,355.732 143.161 C 355.674 142.940,355.531 142.819,355.413 142.892 C 355.294 142.965,355.113 142.797,355.005 142.512 C 354.898 142.230,354.673 142.000,354.505 142.000 C 354.337 142.000,354.200 141.898,354.200 141.774 C 354.200 141.493,352.527 139.800,352.250 139.800 C 352.138 139.800,352.000 139.620,351.942 139.400 C 351.885 139.180,351.705 139.000,351.542 139.000 C 351.380 139.000,351.200 138.820,351.142 138.600 C 351.085 138.380,350.905 138.200,350.742 138.200 C 350.580 138.200,350.400 138.020,350.342 137.800 C 350.285 137.580,350.094 137.400,349.919 137.400 C 349.743 137.400,349.600 137.297,349.600 137.172 C 349.600 136.902,347.102 134.400,346.832 134.400 C 346.730 134.400,346.597 134.211,346.537 133.980 C 346.476 133.748,346.331 133.619,346.213 133.692 C 346.094 133.765,345.913 133.597,345.805 133.312 C 345.698 133.030,345.473 132.800,345.305 132.800 C 345.137 132.800,345.000 132.702,345.000 132.583 C 345.000 132.308,342.554 129.884,342.346 129.952 C 342.261 129.980,342.105 129.777,342.001 129.501 C 341.896 129.226,341.673 129.000,341.505 129.000 C 341.337 129.000,341.200 128.863,341.200 128.695 C 341.200 128.527,340.974 128.304,340.699 128.199 C 340.423 128.095,340.220 127.939,340.248 127.854 C 340.313 127.657,337.899 125.200,337.641 125.200 C 337.534 125.200,337.397 125.011,337.337 124.780 C 337.272 124.532,337.134 124.417,337.000 124.500 C 336.865 124.583,336.727 124.464,336.659 124.205 C 336.597 123.965,336.327 123.686,336.061 123.585 C 335.793 123.483,335.635 123.305,335.708 123.187 C 335.781 123.069,335.652 122.924,335.420 122.863 C 335.189 122.803,335.000 122.669,335.000 122.566 C 335.000 122.321,332.479 119.800,332.234 119.800 C 332.131 119.800,332.000 119.620,331.942 119.400 C 331.885 119.180,331.705 119.000,331.542 119.000 C 331.380 119.000,331.200 118.820,331.142 118.600 C 331.085 118.380,330.894 118.200,330.719 118.200 C 330.543 118.200,330.400 118.105,330.400 117.989 C 330.400 117.728,327.893 115.200,327.634 115.200 C 327.531 115.200,327.400 115.020,327.342 114.800 C 327.285 114.580,327.105 114.400,326.942 114.400 C 326.780 114.400,326.600 114.220,326.542 114.000 C 326.485 113.780,326.294 113.600,326.119 113.600 C 325.943 113.600,325.800 113.468,325.800 113.306 C 325.800 113.145,325.553 112.879,325.250 112.714 C 324.947 112.550,324.784 112.412,324.888 112.408 C 324.991 112.404,324.880 112.218,324.642 111.996 C 324.403 111.774,324.153 111.616,324.086 111.646 C 324.019 111.676,323.834 111.453,323.675 111.150 C 323.517 110.847,323.255 110.600,323.094 110.600 C 322.932 110.600,322.800 110.457,322.800 110.281 C 322.800 110.106,322.620 109.915,322.400 109.858 C 322.180 109.800,322.000 109.620,322.000 109.458 C 322.000 109.295,321.820 109.115,321.600 109.058 C 321.380 109.000,321.200 108.820,321.200 108.658 C 321.200 108.495,321.020 108.315,320.800 108.258 C 320.580 108.200,320.400 108.071,320.400 107.971 C 320.400 107.721,318.659 106.000,318.405 106.000 C 318.292 106.000,318.200 105.857,318.200 105.681 C 318.200 105.506,318.020 105.315,317.800 105.258 C 317.580 105.200,317.400 105.020,317.400 104.858 C 317.400 104.695,317.220 104.515,317.000 104.458 C 316.780 104.400,316.600 104.220,316.600 104.058 C 316.600 103.895,316.420 103.715,316.200 103.658 C 315.980 103.600,315.800 103.435,315.800 103.290 C 315.800 103.145,315.620 102.970,315.400 102.900 C 315.180 102.830,315.000 102.634,315.000 102.465 C 315.000 102.275,314.886 102.201,314.702 102.271 C 314.539 102.334,314.418 102.321,314.434 102.243 C 314.496 101.944,314.146 101.400,313.892 101.400 C 313.746 101.400,313.570 101.220,313.500 101.000 C 313.430 100.780,313.244 100.600,313.087 100.600 C 312.929 100.600,312.800 100.457,312.800 100.281 C 312.800 100.106,312.620 99.915,312.400 99.858 C 312.180 99.800,312.000 99.620,312.000 99.458 C 312.000 99.295,311.820 99.115,311.600 99.058 C 311.380 99.000,311.200 98.862,311.200 98.750 C 311.200 98.638,310.640 98.019,309.955 97.373 L 308.711 96.200 280.905 96.221 C 262.665 96.234,253.375 96.307,253.900 96.433 " stroke="none" fill="#fb330c" fill-rule="evenodd"></path><path id="path1" d="M20.588 94.550 C 20.581 94.853,17.313 136.320,13.325 186.700 C 9.337 237.080,6.107 278.368,6.149 278.450 C 6.292 278.737,137.600 278.632,137.600 278.345 C 137.600 278.205,138.230 269.857,139.000 259.795 C 139.769 249.733,140.399 241.388,140.400 241.250 C 140.400 241.051,131.887 241.000,98.500 241.000 C 58.729 241.000,56.600 240.982,56.600 240.650 C 56.600 240.457,57.275 232.082,58.100 222.039 C 58.925 211.995,59.600 203.693,59.600 203.589 C 59.600 203.472,74.489 203.382,98.844 203.350 L 138.087 203.300 139.733 185.100 C 140.638 175.090,141.384 166.698,141.390 166.450 L 141.400 166.001 101.947 165.950 L 62.494 165.900 63.898 148.700 L 65.302 131.500 107.231 131.450 L 149.161 131.399 149.284 130.250 C 149.528 127.980,152.200 95.423,152.200 94.719 L 152.200 94.000 86.400 94.000 L 20.600 94.000 20.588 94.550 M153.400 94.574 C 153.400 94.901,150.205 136.380,146.300 186.749 C 142.395 237.118,139.200 278.398,139.200 278.483 C 139.200 278.723,219.637 278.478,224.300 278.224 C 283.558 274.995,317.122 243.148,320.020 187.400 C 322.434 140.957,299.620 107.984,257.834 97.521 C 255.890 97.034,253.873 96.573,253.350 96.495 C 252.828 96.418,252.400 96.287,252.400 96.204 C 252.400 96.121,252.063 96.004,251.650 95.944 C 251.238 95.884,249.325 95.605,247.400 95.323 C 239.017 94.096,240.565 94.134,195.050 94.053 L 153.400 93.979 153.400 94.574 M231.084 133.479 C 255.014 136.162,268.798 149.322,271.639 172.200 C 271.983 174.966,271.981 187.442,271.637 190.600 C 268.230 221.849,253.702 235.994,221.700 239.221 C 217.333 239.661,191.002 239.703,190.991 239.270 C 190.986 239.066,192.898 215.065,195.240 185.933 L 199.498 132.966 213.799 133.056 C 225.391 133.128,228.665 133.208,231.084 133.479 M24.502 289.172 C 24.424 290.257,24.302 291.431,24.230 291.782 L 24.100 292.419 16.553 292.405 C 12.402 292.397,8.795 292.444,8.539 292.508 C 8.055 292.629,7.724 294.644,7.553 298.500 L 7.500 299.700 15.064 299.752 L 22.628 299.805 22.520 300.852 C 22.460 301.429,22.358 302.800,22.293 303.900 C 22.228 305.000,22.129 306.058,22.074 306.250 C 21.980 306.575,21.451 306.600,14.611 306.600 C 8.961 306.600,7.202 306.658,7.049 306.850 C 6.856 307.090,6.723 308.354,6.470 312.350 L 6.352 314.200 14.436 314.200 L 22.519 314.200 22.375 315.850 C 22.295 316.757,22.194 318.018,22.149 318.650 L 22.067 319.800 22.710 319.800 L 23.352 319.800 23.572 317.550 C 23.692 316.313,23.889 313.995,24.009 312.400 C 24.244 309.266,24.436 306.812,24.907 300.900 C 25.073 298.810,25.343 295.390,25.506 293.300 C 25.669 291.210,25.858 288.983,25.926 288.350 L 26.050 287.200 25.346 287.200 L 24.643 287.200 24.502 289.172 M34.000 287.314 C 34.000 287.527,47.046 305.400,47.201 305.400 C 47.441 305.400,47.517 304.733,48.097 297.500 C 48.371 294.085,48.564 291.866,48.895 288.350 L 49.003 287.200 41.502 287.200 C 37.376 287.200,34.000 287.251,34.000 287.314 M67.024 289.450 C 67.464 290.688,68.037 292.330,68.297 293.100 C 68.558 293.870,69.190 295.670,69.702 297.100 C 70.214 298.530,70.751 300.060,70.896 300.500 C 71.041 300.940,71.673 302.740,72.299 304.500 C 72.926 306.260,73.552 308.060,73.691 308.500 C 74.046 309.624,74.411 309.583,75.012 308.350 C 75.294 307.773,77.769 302.851,80.512 297.414 C 83.255 291.976,85.530 287.454,85.567 287.364 C 85.603 287.274,81.267 287.200,75.929 287.200 L 66.225 287.200 67.024 289.450 M103.027 290.350 C 102.891 292.082,102.698 294.670,102.598 296.100 C 102.498 297.530,102.323 299.735,102.209 301.000 C 102.096 302.265,101.865 305.145,101.696 307.400 C 101.408 311.247,101.125 314.656,100.883 317.200 L 100.778 318.300 101.152 317.700 C 101.357 317.370,101.994 316.223,102.566 315.151 C 103.139 314.078,103.816 312.818,104.072 312.351 C 104.328 311.883,104.925 310.780,105.400 309.900 C 105.875 309.020,106.507 307.850,106.805 307.300 C 107.103 306.750,107.663 305.715,108.049 305.000 C 108.677 303.836,111.574 298.513,113.001 295.900 C 113.301 295.350,113.931 294.180,114.400 293.300 C 114.869 292.420,115.455 291.340,115.702 290.900 C 116.619 289.266,117.600 287.409,117.600 287.306 C 117.600 287.248,114.377 287.200,110.438 287.200 L 103.275 287.200 103.027 290.350 M126.625 287.750 C 127.177 289.161,128.687 293.077,130.152 296.900 C 131.710 300.963,132.057 301.851,132.422 302.700 C 132.573 303.054,134.369 307.737,135.986 312.000 C 138.713 319.184,138.534 319.042,138.805 314.243 C 138.902 312.514,139.076 310.155,139.191 309.000 C 139.401 306.888,139.649 303.571,139.999 298.200 C 140.103 296.605,140.277 294.445,140.387 293.400 C 140.496 292.355,140.640 290.532,140.706 289.350 L 140.827 287.200 133.618 287.200 L 126.410 287.200 126.625 287.750 M165.360 288.150 C 176.129 294.374,175.183 312.968,163.803 318.769 L 161.781 319.800 172.340 319.795 L 182.900 319.789 181.756 319.169 C 176.567 316.353,174.100 311.563,174.100 304.300 C 174.100 296.354,176.854 290.892,182.481 287.673 L 183.300 287.205 173.508 287.202 L 163.716 287.200 165.360 288.150 M201.543 287.687 C 202.384 288.168,203.471 288.943,204.364 289.700 C 212.180 296.319,210.145 313.671,200.937 318.923 L 199.574 319.700 204.723 319.753 C 207.556 319.783,209.936 319.738,210.013 319.653 C 210.144 319.510,210.369 316.871,210.804 310.400 C 210.903 308.915,211.078 306.755,211.191 305.600 C 211.405 303.415,211.683 299.628,212.007 294.500 C 212.111 292.850,212.287 290.844,212.398 290.042 C 212.509 289.240,212.600 288.272,212.600 287.892 L 212.600 287.200 206.650 287.202 L 200.700 287.205 201.543 287.687 M237.932 287.973 C 240.535 290.052,241.600 292.385,241.600 296.007 C 241.600 301.039,239.571 304.155,235.210 305.820 C 233.549 306.454,233.302 306.678,234.013 306.904 C 235.595 307.406,236.361 308.817,238.396 314.980 L 239.956 319.700 240.950 319.759 L 241.945 319.819 242.076 318.359 C 242.288 315.994,242.779 309.534,242.991 306.300 C 243.099 304.650,243.276 302.535,243.385 301.600 C 243.493 300.665,243.635 298.865,243.700 297.600 C 243.764 296.335,243.897 294.625,243.995 293.800 C 244.093 292.975,244.231 291.153,244.302 289.750 L 244.431 287.200 240.697 287.200 L 236.964 287.200 237.932 287.973 M269.517 287.850 C 269.443 288.207,269.329 289.377,269.262 290.450 L 269.140 292.400 261.284 292.400 C 254.637 292.400,253.383 292.445,253.134 292.694 C 252.860 292.968,252.641 295.151,252.531 298.700 L 252.500 299.700 260.038 299.752 L 267.576 299.805 267.474 301.252 C 267.418 302.049,267.288 303.132,267.186 303.660 C 267.084 304.188,267.000 305.065,267.000 305.610 L 267.000 306.600 259.495 306.600 L 251.990 306.600 251.822 307.050 C 251.729 307.298,251.590 308.806,251.512 310.403 C 251.435 312.000,251.355 313.485,251.336 313.703 C 251.301 314.092,251.459 314.101,259.377 314.152 L 267.455 314.205 267.326 315.302 C 267.154 316.763,267.171 316.746,268.501 314.150 C 270.055 311.114,269.776 311.293,271.566 312.191 C 278.011 315.425,286.271 315.466,287.385 312.269 C 288.129 310.135,286.196 308.713,280.100 306.909 C 273.273 304.889,270.327 302.805,269.314 299.278 C 268.075 294.964,269.777 290.545,273.653 288.012 L 274.897 287.200 272.273 287.200 L 269.650 287.200 269.517 287.850 M294.400 287.500 C 295.044 287.868,295.200 287.868,295.200 287.500 C 295.200 287.293,294.998 287.202,294.550 287.207 L 293.900 287.214 294.400 287.500 M57.142 290.112 C 57.079 290.985,56.933 293.095,56.818 294.800 C 56.703 296.505,56.520 298.800,56.411 299.900 C 56.302 301.000,56.073 303.835,55.902 306.200 C 55.731 308.565,55.506 311.310,55.402 312.300 C 55.298 313.290,55.158 315.225,55.090 316.600 C 55.023 317.975,54.924 319.257,54.870 319.450 C 54.779 319.779,55.209 319.800,61.910 319.800 C 68.609 319.800,69.041 319.779,68.952 319.450 C 68.870 319.145,60.226 296.054,59.500 294.200 C 59.349 293.815,58.939 292.735,58.589 291.800 C 58.239 290.865,57.796 289.745,57.604 289.312 L 57.256 288.524 57.142 290.112 M93.377 289.945 C 92.485 291.571,90.527 295.258,88.302 299.500 C 87.668 300.710,86.902 302.150,86.600 302.700 C 85.872 304.026,84.711 306.207,83.301 308.900 C 82.668 310.110,81.857 311.640,81.501 312.300 C 81.144 312.960,80.241 314.670,79.495 316.100 C 78.748 317.530,78.016 318.878,77.869 319.095 C 77.721 319.311,77.600 319.559,77.600 319.645 C 77.600 319.730,80.776 319.800,84.658 319.800 L 91.716 319.800 91.976 316.350 C 92.119 314.453,92.309 311.775,92.397 310.400 C 92.486 309.025,92.659 306.730,92.781 305.300 C 92.904 303.870,93.139 300.945,93.304 298.800 C 93.469 296.655,93.704 293.775,93.826 292.400 C 94.123 289.059,94.058 288.703,93.377 289.945 M189.200 292.585 C 185.227 294.114,183.283 297.588,183.057 303.557 C 182.787 310.713,185.675 314.608,191.242 314.597 C 196.702 314.586,200.190 309.795,200.193 302.300 C 200.196 294.977,194.974 290.361,189.200 292.585 M280.770 292.583 C 275.835 294.161,276.893 297.582,282.900 299.470 C 291.085 302.042,291.972 302.430,293.881 304.275 L 295.200 305.549 295.190 299.124 L 295.180 292.700 294.486 294.052 L 293.793 295.404 292.746 294.791 C 288.753 292.452,283.948 291.566,280.770 292.583 M221.379 292.521 C 221.133 292.596,221.023 293.022,220.908 294.359 C 220.625 297.656,220.476 300.100,220.550 300.250 C 220.708 300.571,229.470 300.420,230.470 300.079 C 233.683 298.984,234.215 294.453,231.300 293.002 C 230.336 292.522,222.618 292.148,221.379 292.521 M149.517 293.650 C 149.457 294.118,149.316 295.670,149.202 297.100 C 149.088 298.530,148.906 300.690,148.797 301.900 C 148.331 307.098,148.118 310.222,148.109 312.000 L 148.100 313.900 151.100 313.963 C 159.922 314.147,163.809 310.588,163.798 302.336 C 163.790 295.678,160.481 292.800,152.833 292.800 L 149.625 292.800 149.517 293.650 M119.920 298.550 C 119.105 300.173,117.844 302.668,117.119 304.095 C 116.394 305.522,115.800 306.715,115.800 306.745 C 115.800 306.775,118.005 306.800,120.700 306.800 C 124.621 306.800,125.600 306.747,125.600 306.536 C 125.600 306.392,125.276 305.379,124.880 304.286 C 124.484 303.194,123.940 301.670,123.670 300.900 C 123.136 299.377,122.289 297.025,121.959 296.150 C 121.627 295.270,121.483 295.441,119.920 298.550 M33.200 302.412 C 33.200 302.858,33.112 304.051,33.005 305.062 C 32.827 306.741,32.672 308.632,32.197 314.900 C 32.106 316.110,31.967 317.707,31.888 318.450 L 31.745 319.800 39.294 319.800 C 45.918 319.800,46.829 319.763,46.728 319.500 C 46.665 319.335,45.379 317.513,43.870 315.450 C 42.362 313.388,40.762 311.196,40.314 310.580 C 33.118 300.683,33.200 300.777,33.200 302.412 M220.086 307.422 C 219.938 307.662,219.721 310.084,219.408 315.000 C 219.299 316.705,219.165 318.483,219.109 318.950 L 219.008 319.800 224.704 319.800 C 227.837 319.800,230.400 319.742,230.400 319.672 C 230.400 319.515,229.275 315.796,228.896 314.700 C 228.744 314.260,228.252 312.713,227.802 311.262 C 226.908 308.374,226.508 307.815,225.044 307.409 C 224.027 307.126,220.263 307.137,220.086 307.422 M110.700 316.800 L 109.197 319.800 119.699 319.800 C 128.113 319.800,130.200 319.749,130.200 319.543 C 130.200 319.320,129.048 315.951,128.424 314.350 L 128.210 313.800 120.206 313.800 L 112.203 313.800 110.700 316.800 M294.596 316.450 C 293.868 317.438,292.709 318.430,291.442 319.148 L 290.300 319.795 292.750 319.798 L 295.200 319.800 295.200 317.800 C 295.200 315.521,295.230 315.589,294.596 316.450 M267.000 318.904 L 267.000 319.800 269.050 319.790 L 271.100 319.780 269.816 319.287 C 269.110 319.015,268.435 318.722,268.316 318.636 C 268.197 318.549,267.853 318.373,267.550 318.243 L 267.000 318.009 267.000 318.904 " stroke="none" fill="#040c54" fill-rule="evenodd"></path><path id="path2" d="M320.046 187.200 C 320.046 187.585,320.088 187.743,320.138 187.550 C 320.188 187.358,320.188 187.043,320.138 186.850 C 320.088 186.658,320.046 186.815,320.046 187.200 M218.650 278.538 C 218.843 278.588,219.157 278.588,219.350 278.538 C 219.543 278.488,219.385 278.446,219.000 278.446 C 218.615 278.446,218.457 278.488,218.650 278.538 " stroke="none" fill="#601d39" fill-rule="evenodd"></path><path id="path3" d="M296.800 118.500 C 297.509 119.215,298.133 119.800,298.188 119.800 C 298.243 119.800,297.709 119.215,297.000 118.500 C 296.291 117.785,295.667 117.200,295.612 117.200 C 295.557 117.200,296.091 117.785,296.800 118.500 M320.279 180.700 C 320.279 182.240,320.311 182.844,320.349 182.041 C 320.387 181.239,320.386 179.979,320.348 179.241 C 320.310 178.504,320.279 179.160,320.279 180.700 M294.295 251.450 L 292.700 253.100 294.350 251.505 C 295.882 250.023,296.091 249.800,295.945 249.800 C 295.915 249.800,295.173 250.543,294.295 251.450 M227.850 278.138 C 228.043 278.188,228.357 278.188,228.550 278.138 C 228.743 278.088,228.585 278.046,228.200 278.046 C 227.815 278.046,227.657 278.088,227.850 278.138 M223.750 278.341 C 223.998 278.389,224.403 278.389,224.650 278.341 C 224.898 278.293,224.695 278.254,224.200 278.254 C 223.705 278.254,223.503 278.293,223.750 278.341 " stroke="none" fill="#9c2429" fill-rule="evenodd"></path><path id="path4" d="M213.460 278.549 C 214.428 278.586,215.958 278.586,216.860 278.549 C 217.762 278.512,216.970 278.482,215.100 278.482 C 213.230 278.482,212.492 278.512,213.460 278.549 " stroke="none" fill="#321444" fill-rule="evenodd"></path></g></svg>