<?xml version="1.0" encoding="UTF-8" standalone="no"?>
<svg
   width="39.627064"
   height="20.957001"
   viewBox="0 0 39.627064 20.957001"
   fill="none"
   version="1.1"
   id="svg10"
   sodipodi:docname="manuable-logo.svg"
   inkscape:version="1.4 (e7c3feb1, 2024-10-09)"
   xmlns:inkscape="http://www.inkscape.org/namespaces/inkscape"
   xmlns:sodipodi="http://sodipodi.sourceforge.net/DTD/sodipodi-0.dtd"
   xmlns="http://www.w3.org/2000/svg"
   xmlns:svg="http://www.w3.org/2000/svg">
  <defs
     id="defs10" />
  <sodipodi:namedview
     id="namedview10"
     pagecolor="#ffffff"
     bordercolor="#000000"
     borderopacity="0.25"
     inkscape:showpageshadow="2"
     inkscape:pageopacity="0.0"
     inkscape:pagecheckerboard="0"
     inkscape:deskcolor="#d1d1d1"
     inkscape:zoom="0.52"
     inkscape:cx="-37.5"
     inkscape:cy="11.538462"
     inkscape:window-width="1568"
     inkscape:window-height="937"
     inkscape:window-x="0"
     inkscape:window-y="25"
     inkscape:window-maximized="0"
     inkscape:current-layer="svg10" />
  <path
     d="m 37.70305,1.13 h -0.485 c -1.08,0 -1.927,0.857 -1.927,1.952 v 7.653 c 0,1.766 -0.6771,2.422 -2.4951,2.422 -0.61,0 -1.241,-0.082 -1.889,-0.245 v -9.83 c 0,-0.159 -0.0239,-0.312 -0.0609,-0.461 -0.081,-0.56 -0.389,-1.07 -0.88,-1.398 l -0.1261,-0.084 -0.138,-0.062 C 28.11695,0.372 26.33795,0 24.55595,0 c -4.341,0 -6.932,2.5 -6.932,6.688 v 7.679 c 0,0.086 0.0141,0.167 0.0241,0.249 -0.092,1.496 -0.7881,2.075 -2.4781,2.075 -0.609,0 -1.24,-0.083 -1.888,-0.245 V 6.615 c 0,-0.159 -0.0239,-0.312 -0.0609,-0.461 -0.082,-0.561 -0.389,-1.071 -0.88,-1.399 L 12.21495,4.672 12.07695,4.61 C 10.49195,3.905 8.71295,3.533 6.93095,3.533 2.59097,3.533 0,6.034 0,10.221 V 17.9 c 0,1.079 0.84596,1.926 1.92596,1.926 H 2.388 c 1.094,0 1.95001,-0.847 1.95001,-1.926 v -7.654 c 0,-1.496 0.43496,-2.424 2.59294,-2.424 0.641,0 1.326,0.084 1.986,0.239 V 17.9 c 0,0.187 0.033,0.363 0.081,0.532 0.125,0.663 0.5521,1.222 1.1681,1.469 1.524,0.69 3.252,1.056 5.003,1.056 4.217,0 6.8349,-2.563 6.8349,-6.688 V 6.616 c 0,-0.096 -0.015,-0.187 -0.027,-0.278 0.079,-1.27 0.6081,-2.047 2.5771,-2.047 0.64,0 1.326,0.084 1.985,0.237 v 9.84 c 0,0.188 0.0329,0.363 0.0809,0.533 0.125,0.661 0.5521,1.221 1.1691,1.468 1.523,0.691 3.2509,1.056 5.0029,1.056 4.216,0 6.8351,-2.563 6.8351,-6.688 V 3.084 c 0.004,-1.097 -0.843,-1.954 -1.924,-1.954 z"
     fill="white"
     id="path10"
     style="fill:#a97ff1;fill-opacity:1" />
</svg>
